<svg width="30" height="30" fill="none" xmlns="http://www.w3.org/2000/svg"><path fill-rule="evenodd" clip-rule="evenodd" d="M6.61 19.905c.43 1.466.887 3.021-.145 7.304C3.909 26.512.435 21.563 0 15.928v-2.272c.07-.89.222-1.778.475-2.657C5.394-6.139 31.293-2.574 29.95 17c-.192 2.868-1.859 5.453-3.404 7.827-1.758-1.152-3.495-6.545-3.435-8.504.043-1.474.956-2.366 1.911-3.298 1.074-1.049 2.2-2.149 2.2-4.186-.895.082-1.51.848-2.152 1.648-.793.986-1.624 2.022-3.07 1.877-.316-.996.063-1.569.437-2.132.342-.517.68-1.026.472-1.847-1.323-.445-2.02.151-2.727 1.252-.61.952-.505 1.286-.353 1.765.105.329.23.725.161 1.437-1.626 1.636-3 1.626-5.273 1.363-1.016-1.002-1.11-1.337-1.289-1.965a8.819 8.819 0 00-.489-1.358c-.405-.898-.782-1.278-1.219-1.716a8.677 8.677 0 01-.861-.97c.064-1.221.405-1.733.68-2.148.327-.49.564-.847.148-2.084-1.036-.257-1.569.295-2.295 1.048-.16.165-.328.34-.513.518l-.121 2.888-.095.096c-.928.94-1.256 1.274-1.377 1.67-.067.218-.071.455-.078.821-.006.359-.015.842-.087 1.554-.055.555-.256 1.376-.458 2.206-.244.997-.491 2.007-.491 2.58 0 1.074.215 1.807.438 2.564zm12.51 1.77c1.237 7.033 1.574 8.947-5.08 8.16-1.1-1.093-1.099-1.377-1.092-2.445.001-.245.003-.531-.009-.878a28.242 28.242 0 00-.138-1.69c-.268-2.67-.659-6.577 1.21-8.793 3.726-.293 4.363 1.363 4.908 4.504l.2 1.14v.001zm5.054 5.292c-.754.608-1.017.82-2.083.949-.92-1.525-1.152-4.292-.344-5.848 1.718.515 2.819 3.1 2.667 4.707l-.24.192zm-14.386-5.12c.861 1.187.812 4.306.779 6.414-.006.365-.011.699-.011.988-1.796-.16-1.764-1.27-1.721-2.751.006-.21.012-.429.013-.652.003-.527-.015-.994-.03-1.406-.056-1.508-.085-2.285.97-2.594z" fill="#EF4635"/></svg>