<svg width="124" height="22" fill="none" xmlns="http://www.w3.org/2000/svg"><path d="M28.174 6.23v3.958c0 .206.171.373.38.373h2.472c.89 0 1.582-.219 2.08-.655.498-.436.745-.998.745-1.683s-.222-1.25-.667-1.695c-.444-.446-1.12-.668-2.027-.668h-2.602c-.21 0-.38.167-.38.373v-.002zm-.38 13.583H24.5a.377.377 0 01-.38-.373V2.58c0-.206.17-.373.38-.373h7.26c.959 0 1.817.145 2.576.436a5.67 5.67 0 011.935 1.208 5.256 5.256 0 011.23 1.85c.288.72.431 1.509.431 2.365a5.56 5.56 0 01-1.308 3.623 5.526 5.526 0 01-1.543 1.26 6.77 6.77 0 01-1.437.596.366.366 0 00-.258.259.356.356 0 00.085.351l4.69 5.03a.36.36 0 01.067.403.372.372 0 01-.347.223h-4.248a.37.37 0 01-.287-.13l-4.503-5.102a.377.377 0 00-.42-.105.368.368 0 00-.247.35v4.614c0 .206-.17.373-.38.373l-.002.001zM40.588 2.21h6.945c1.378 0 2.629.227 3.754.68 1.126.455 2.084 1.071 2.878 1.851s1.408 1.7 1.844 2.763a8.917 8.917 0 01.654 3.418 8.955 8.955 0 01-.68 3.482 8.408 8.408 0 01-1.91 2.827c-.82.797-1.8 1.427-2.942 1.889-1.142.463-2.41.693-3.806.693h-6.736a.377.377 0 01-.38-.373V2.58c0-.206.17-.373.38-.373l-.001.002zm3.675 4.023v9.56c0 .205.17.373.38.373h2.811c.732 0 1.408-.128 2.027-.385a4.954 4.954 0 001.622-1.08 4.993 4.993 0 001.085-1.644 5.403 5.403 0 00.392-2.082c0-.736-.13-1.417-.392-2.043a4.784 4.784 0 00-1.1-1.619 5.123 5.123 0 00-1.673-1.067 5.604 5.604 0 00-2.094-.385h-2.68c-.21 0-.38.167-.38.373l.002-.001zM64.386 7.44l-1.802 5.33a.358.358 0 00.052.336c.073.1.182.155.308.155h3.603a.372.372 0 00.309-.155.357.357 0 00.052-.336l-1.802-5.33a.375.375 0 00-.36-.256c-.167 0-.308.1-.36.256zm3.617 9.342h-6.488c-.167 0-.308.1-.361.256l-.848 2.52a.374.374 0 01-.361.256h-3.348a.37.37 0 01-.31-.158.357.357 0 01-.048-.34l6.063-16.858a.373.373 0 01.358-.25h4.433c.164 0 .304.099.357.25l6.038 16.858a.358.358 0 01-.048.34.37.37 0 01-.31.157h-3.558a.376.376 0 01-.362-.256l-.848-2.52a.374.374 0 00-.36-.257l.001.002z" fill="#fff"/><path fill-rule="evenodd" clip-rule="evenodd" d="M105.57 9.122h-7.612a.377.377 0 01-.38-.374V6.18c0-.206.17-.374.38-.374h8.293c.209 0 .38-.168.38-.374v-2.85a.378.378 0 00-.38-.374H93.905c-.21 0-.38.167-.38.373V19.44c0 .206.17.373.38.373h12.372c.209 0 .38-.167.38-.373v-2.852a.378.378 0 00-.38-.373h-8.319a.377.377 0 01-.38-.374V12.99c0-.206.17-.373.38-.373h7.612c.209 0 .38-.168.38-.374V9.494a.378.378 0 00-.38-.374v.002zm-14.44 5.512c.444-1.121.666-2.342.666-3.662v-.655a.377.377 0 00-.38-.374h-8.527c-.21 0-.38.168-.38.374v2.723c0 .206.17.374.38.374h3.808a.37.37 0 01.322.175.357.357 0 01.017.362 4.545 4.545 0 01-1.453 1.698c-.776.548-1.766.823-2.97.823a5.645 5.645 0 01-2.171-.41 5.31 5.31 0 01-1.713-1.12 5.022 5.022 0 01-1.126-1.696 5.608 5.608 0 01-.405-2.146c0-.823.14-1.572.419-2.248a5.18 5.18 0 011.164-1.748 5.195 5.195 0 011.753-1.132 5.89 5.89 0 012.185-.398c.941 0 1.787.21 2.537.63a6.918 6.918 0 011.8 1.477.386.386 0 00.534.04l2.421-2.024a.368.368 0 00.056-.511 8.407 8.407 0 00-2.913-2.387c-1.264-.634-2.743-.951-4.434-.951-1.448 0-2.764.24-3.95.72-1.187.479-2.203 1.134-3.049 1.965a8.735 8.735 0 00-1.962 2.916 9.165 9.165 0 00-.693 3.547c0 1.269.236 2.46.706 3.573a8.829 8.829 0 001.988 2.918c.854.83 1.875 1.486 3.061 1.966 1.186.479 2.486.719 3.898.719 1.343 0 2.573-.232 3.689-.694a8.412 8.412 0 002.864-1.927 8.828 8.828 0 001.857-2.918v.001zm21.929-4.894l6.407 9.9c.072.11.187.173.321.173h3.832c.21 0 .381-.167.381-.373V2.58a.378.378 0 00-.381-.373h-3.138a.378.378 0 00-.38.373v9.521a.369.369 0 01-.274.358.378.378 0 01-.426-.158l-6.408-9.92a.371.371 0 00-.321-.174h-3.832a.378.378 0 00-.38.373v16.86c0 .206.171.373.38.373h3.138c.21 0 .381-.167.381-.373V9.942c0-.169.108-.312.273-.358a.38.38 0 01.427.158V9.74zM62.303 2.457L56.24 19.315a.357.357 0 00.048.34.37.37 0 00.31.158h3.348a.376.376 0 00.361-.256l.848-2.52a.374.374 0 01.362-.256h6.488c.167 0 .308.1.361.256l.848 2.52a.374.374 0 00.362.256h3.557a.374.374 0 00.359-.497L67.454 2.458a.373.373 0 00-.358-.25h-4.433a.373.373 0 00-.357.25l-.003-.001zm.282 10.31l1.802-5.33a.375.375 0 01.36-.255c.167 0 .308.1.36.256l1.802 5.33a.358.358 0 01-.052.336.372.372 0 01-.308.155h-3.604a.372.372 0 01-.308-.155.357.357 0 01-.052-.336zm-15.261-6.91c.75 0 1.447.13 2.093.385A5.08 5.08 0 0151.09 7.31c.47.454.837.994 1.099 1.618.262.625.392 1.307.392 2.044 0 .754-.13 1.448-.392 2.082a4.988 4.988 0 01-1.085 1.644 4.949 4.949 0 01-1.622 1.08 5.233 5.233 0 01-2.027.385h-2.81a.377.377 0 01-.381-.374v-9.56c0-.205.17-.373.38-.373h2.681l-.002.001zm-7.116-3.276V19.44c0 .206.17.373.38.373h6.736c1.395 0 2.664-.231 3.806-.693 1.142-.463 2.124-1.093 2.942-1.89a8.408 8.408 0 001.91-2.826 8.954 8.954 0 00.68-3.482 8.915 8.915 0 00-.654-3.418 8.176 8.176 0 00-1.844-2.763c-.794-.78-1.754-1.396-2.878-1.85-1.125-.454-2.376-.681-3.754-.681h-6.945c-.21 0-.38.168-.38.374V2.58zM12.136 13.404a5.13 5.13 0 00-.747 3.912.44.44 0 00.476.344 6.855 6.855 0 003.37-1.272.428.428 0 00.12-.569 5.28 5.28 0 00-3.22-2.415h.001zM22.394 11c0-6.075-5.013-11-11.197-11C5.013 0 0 4.925 0 11s5.013 11 11.197 11c6.184 0 11.197-4.925 11.197-11zM14.62.811L14.584.8l.036.011zM9.792 16.942a6.6 6.6 0 01.471-3.237.416.416 0 00-.022-.376.425.425 0 00-.313-.218 10.138 10.138 0 01-.605-.122.444.444 0 00-.515.264l-.067.171a8.04 8.04 0 00-.49 3.355c.01.168.11.306.268.373.228.095.463.18.703.251a.441.441 0 00.411-.081.42.42 0 00.159-.38zm-2.778-3.085a9.72 9.72 0 01.357-1.102.43.43 0 00-.214-.545 9.877 9.877 0 01-2.033-1.351.441.441 0 00-.48-.066.424.424 0 00-.254.406 6.603 6.603 0 001.612 4.126.439.439 0 00.466.135.43.43 0 00.313-.366c.05-.416.128-.83.233-1.238v.001zm-.771-4.025a8.37 8.37 0 001.642 1.063.444.444 0 00.562-.142c.117-.165.24-.33.368-.489a.417.417 0 00.084-.367.426.426 0 00-.24-.295 6.805 6.805 0 01-2.555-2.096.436.436 0 00-.376-.179.435.435 0 00-.36.21c-.13.21-.247.426-.352.649a.419.419 0 00.054.453A8.33 8.33 0 006.243 9.83v.002zm4.415.64c-.162.16-.318.327-.464.497a.42.42 0 00-.076.436c.059.152.19.254.354.276.225.03.453.052.684.064l.133.008a.435.435 0 00.353-.133l.094-.094c.163-.16.317-.327.464-.497a.42.42 0 00.075-.438.434.434 0 00-.354-.275 8.743 8.743 0 00-.684-.064l-.135-.009a.435.435 0 00-.353.133c-.03.032-.063.063-.094.095h.003zm3.288.772c-.116.166-.239.33-.367.49a.417.417 0 00-.084.367.426.426 0 00.24.294 6.804 6.804 0 012.555 2.096c.09.121.223.185.376.18a.433.433 0 00.36-.21c.13-.21.247-.426.352-.65a.419.419 0 00-.054-.452 8.266 8.266 0 00-2.65-2.172l-.165-.083a.445.445 0 00-.563.142v-.002zm1.29-1.457a9.87 9.87 0 012.033 1.351.441.441 0 00.481.067.426.426 0 00.254-.406 6.603 6.603 0 00-1.613-4.126c-.116-.135-.293-.186-.465-.135a.43.43 0 00-.313.366 9.584 9.584 0 01-.59 2.339.43.43 0 00.213.544zm-1.582-1.215a8.045 8.045 0 00.49-3.355.427.427 0 00-.268-.372 6.82 6.82 0 00-.704-.252.441.441 0 00-.411.082.423.423 0 00-.16.38 6.627 6.627 0 01-.47 3.238.417.417 0 00.023.376.43.43 0 00.313.219c.204.035.406.075.605.122a.444.444 0 00.516-.264l.066-.171v-.003zm-3.21-.278a5.127 5.127 0 00.561-3.611.441.441 0 00-.476-.344 6.855 6.855 0 00-3.37 1.272.428.428 0 00-.12.569 5.283 5.283 0 002.876 2.313.444.444 0 00.529-.199zm1.208-5.409c4.56.247 8.055 4.079 7.804 8.56-.251 4.48-4.152 7.913-8.713 7.666-4.56-.246-8.055-4.079-7.804-8.56.251-4.48 4.152-7.913 8.713-7.666z" fill="#fff"/></svg>