<svg width="38" height="41" fill="none" xmlns="http://www.w3.org/2000/svg"><path d="M29 8.634c1.85-.334 3.788-.528 5.912-.6C36.048 7.996 37 8.896 37 10.032v23.674a1.99 1.99 0 01-1.948 1.996C28.868 35.796 24.212 36.936 19 40m0 0c-5.212-3.064-9.868-4.204-16.052-4.296C1.866 35.688 1 34.79 1 33.706V10.032c0-1.118.918-2.036 2.034-2C9.176 8.23 13.812 9.386 19 12.292M19 40V11.224c.694-3.684 3.654-7.262 7.166-9.022C27.468 1.548 29 2.566 29 4.024v24.452c0 .848-.534 1.606-1.338 1.876-4.14 1.39-7.87 5.45-8.662 9.648z" stroke="#fff" stroke-width="2" stroke-linecap="round" stroke-linejoin="round"/></svg>