<svg width="42" height="34" fill="none" xmlns="http://www.w3.org/2000/svg"><path d="M40.166 5.996c-.458-1.963-1.814-3.512-3.538-4.044C33.51 1 21 1 21 1S8.496 1 5.372 1.952c-1.718.524-3.074 2.073-3.538 4.044C1 9.56 1 17 1 17s0 7.44.834 11.004c.458 1.963 1.814 3.512 3.538 4.044C8.496 33 21 33 21 33s12.51 0 15.628-.952c1.718-.524 3.074-2.073 3.538-4.044C41 24.44 41 17 41 17s0-7.44-.834-11.004z" stroke="#fff" stroke-width="2" stroke-linecap="round" stroke-linejoin="round"/><path d="M17.004 22.866L27.396 17l-10.392-5.867v11.733z" stroke="#fff" stroke-width="2" stroke-linecap="round" stroke-linejoin="round"/></svg>