<svg width="20" height="20" fill="none" xmlns="http://www.w3.org/2000/svg"><path fill-rule="evenodd" clip-rule="evenodd" d="M10.839 12.186a4.732 4.732 0 00-.668 3.556.394.394 0 00.426.313 6.058 6.058 0 003.01-1.157.394.394 0 00.107-.517 4.727 4.727 0 00-2.876-2.195h.001zM20 10c0-5.523-4.477-10-10-10S0 4.477 0 10s4.477 10 10 10 10-4.477 10-10zM13.058.737l-.033-.01.033.01zM8.745 15.402a6.104 6.104 0 01.421-2.943.385.385 0 00-.02-.342.38.38 0 00-.28-.198 8.948 8.948 0 01-.54-.11.395.395 0 00-.46.24l-.06.155a7.417 7.417 0 00-.437 3.05c.01.152.098.278.239.338.204.087.414.165.628.229.13.04.262.013.367-.074a.385.385 0 00.142-.346v.001zm-2.48-2.805c.085-.338.192-.672.318-1.002a.394.394 0 00-.19-.495 8.848 8.848 0 01-1.815-1.228.389.389 0 00-.43-.06.386.386 0 00-.227.369 6.063 6.063 0 001.44 3.75c.103.123.261.17.416.123a.389.389 0 00.279-.332c.044-.379.114-.754.208-1.126v.001zm-.69-3.66a7.468 7.468 0 001.467.968.39.39 0 00.502-.13c.104-.15.214-.299.328-.444a.384.384 0 00.076-.334.386.386 0 00-.214-.268 6.104 6.104 0 01-2.282-1.905.387.387 0 00-.337-.163.388.388 0 00-.321.19c-.116.19-.22.388-.315.59a.386.386 0 00.05.412 7.51 7.51 0 001.047 1.084zm3.944.583a7.912 7.912 0 00-.415.451.388.388 0 00-.068.397c.053.139.17.23.317.25.2.028.404.048.61.06l.12.006c.121.01.23-.032.315-.12l.083-.086c.146-.146.284-.297.415-.451a.387.387 0 00.067-.398.39.39 0 00-.317-.251 7.69 7.69 0 00-.61-.058l-.12-.008a.384.384 0 00-.316.12c-.027.03-.056.058-.083.087h.002zm2.937.702c-.104.15-.214.3-.328.444a.384.384 0 00-.075.335c.028.12.101.214.213.268a6.113 6.113 0 012.282 1.905c.08.11.2.168.337.163a.385.385 0 00.321-.19c.116-.191.22-.388.315-.59a.386.386 0 00-.05-.412 7.46 7.46 0 00-2.365-1.975l-.148-.076a.394.394 0 00-.502.13v-.002zm1.152-1.324a8.843 8.843 0 011.816 1.228c.12.106.283.129.429.06a.388.388 0 00.226-.369 6.062 6.062 0 00-1.44-3.75.387.387 0 00-.416-.123.389.389 0 00-.279.332 8.848 8.848 0 01-.527 2.126.394.394 0 00.19.496zm-1.414-1.105a7.42 7.42 0 00.438-3.05.387.387 0 00-.239-.339 6.003 6.003 0 00-.63-.228.389.389 0 00-.367.074.388.388 0 00-.141.346 6.128 6.128 0 01-.42 2.943.385.385 0 00.02.342c.06.109.156.178.28.199.181.032.362.069.54.11a.395.395 0 00.46-.24l.06-.155v-.002zM9.327 7.54a4.728 4.728 0 00.502-3.283.395.395 0 00-.426-.313 6.058 6.058 0 00-3.01 1.157.394.394 0 00-.106.517A4.736 4.736 0 008.854 7.72a.394.394 0 00.472-.18zm1.08-4.917a7.387 7.387 0 11-.813 14.752 7.387 7.387 0 01.812-14.752z" fill="#9E5E00"/></svg>