<svg width="40" height="40" fill="none" xmlns="http://www.w3.org/2000/svg"><path d="M20.002 5.333a14.667 14.667 0 11-7.012 1.784m0 5.638V6.272H6.507" stroke="#888" stroke-linecap="round" stroke-linejoin="round"/><path d="M16.234 25.164c1.976 0 3.425-1.217 3.425-2.864v-.014c0-1.401-.977-2.297-2.413-2.42v-.027c1.23-.26 2.092-1.094 2.092-2.31v-.014c0-1.497-1.237-2.543-3.117-2.543-1.846 0-3.117 1.073-3.275 2.68l-.006.068h1.182l.007-.069c.102-.998.93-1.613 2.092-1.613 1.203 0 1.88.595 1.88 1.627v.014c0 .984-.82 1.709-1.996 1.709h-1.183v1.039h1.237c1.381 0 2.25.677 2.25 1.887v.013c0 1.046-.883 1.77-2.175 1.77-1.312 0-2.2-.67-2.303-1.64l-.007-.068H12.74l.007.082c.13 1.558 1.45 2.693 3.486 2.693zm8.402 0c2.27 0 3.63-1.962 3.63-5.093v-.013c0-3.131-1.36-5.086-3.63-5.086-2.27 0-3.616 1.955-3.616 5.086v.013c0 3.131 1.346 5.093 3.616 5.093zm0-1.073c-1.504 0-2.38-1.545-2.38-4.02v-.013c0-2.475.876-4.006 2.38-4.006s2.392 1.531 2.392 4.006v.013c0 2.475-.888 4.02-2.392 4.02z" fill="#888"/></svg>