<svg width="38" height="38" fill="none" xmlns="http://www.w3.org/2000/svg"><path d="M29 12v4m0-4l-10 5-10-5 10-5 10 5zm-4.666 2.334v5.51c0 .656-.312 1.268-.852 1.642-.904.624-2.474 1.448-4.47 1.448-1.996 0-3.576-.826-4.486-1.448a1.981 1.981 0 01-.858-1.646v-5.506M23 29l1 8m-9-8l-1 8m-2.72 0h15.44m5.138-8H6.142A5.142 5.142 0 011 23.858V6.142A5.142 5.142 0 016.142 1h25.714A5.142 5.142 0 0137 6.142v17.714A5.142 5.142 0 0131.858 29z" stroke="#E18500" stroke-width="2" stroke-linecap="round" stroke-linejoin="round"/></svg>