<svg width="30" height="30" viewBox="0 0 30 30" fill="none" xmlns="http://www.w3.org/2000/svg">
<path fill-rule="evenodd" clip-rule="evenodd" d="M6.6096 19.905C7.0404 21.3712 7.49724 22.9261 6.46466 27.2089C3.9091 26.5121 0.434345 21.5634 0 15.928V13.6556C0.0707073 12.7669 0.222223 11.8781 0.474749 10.9995C5.39395 -6.13912 31.293 -2.57405 29.9496 16.9985C29.7577 19.8667 28.091 22.4522 26.5455 24.8255C24.7879 23.6742 23.0506 18.2811 23.1112 16.3218C23.154 14.8483 24.0672 13.9564 25.022 13.0239C26.0958 11.9752 27.2223 10.875 27.2223 8.83822C26.3274 8.91957 25.7115 9.6864 25.0698 10.4855C24.2774 11.4722 23.4456 12.508 22.0001 12.3629C21.6839 11.367 22.0633 10.7945 22.4369 10.2308C22.7794 9.71413 23.1169 9.20487 22.9092 8.38375C21.5859 7.93938 20.8889 8.53524 20.1819 9.63607C19.5711 10.588 19.6774 10.9224 19.8294 11.4008C19.9338 11.7295 20.0599 12.1261 19.99 12.8376C18.3637 14.4737 16.9899 14.4636 14.7172 14.201C13.7013 13.1986 13.6064 12.8638 13.4282 12.2358C13.3353 11.9083 13.2198 11.5012 12.9394 10.8783C12.5343 9.97963 12.157 9.60047 11.7204 9.16181L11.7204 9.1618C11.4603 8.90044 11.1792 8.61795 10.8586 8.19186C10.9234 6.97077 11.2636 6.45932 11.5396 6.04437C11.8662 5.55329 12.103 5.19736 11.6869 3.96024C10.6511 3.7034 10.1183 4.25538 9.3915 5.00842C9.23235 5.17331 9.06389 5.34784 8.87881 5.52564L8.7576 8.41405L8.66256 8.51046C7.73549 9.45078 7.40705 9.78392 7.28565 10.1804C7.21905 10.398 7.21477 10.6346 7.20815 11.0011C7.20166 11.3599 7.19292 11.8431 7.12123 12.5548C7.0662 13.1096 6.86543 13.9308 6.66259 14.7605L6.66259 14.7605C6.41866 15.7584 6.17173 16.7684 6.17173 17.3419C6.17173 18.4147 6.3872 19.1481 6.6096 19.905ZM19.1191 21.6743C20.3571 28.7083 20.6939 30.6219 14.0404 29.8348C12.9395 28.7422 12.9412 28.4582 12.9476 27.3902V27.3902C12.949 27.1452 12.9507 26.8589 12.9394 26.5121C12.9236 26.0506 12.8658 25.473 12.8006 24.8218C12.5335 22.1522 12.1425 18.2454 14.0101 16.029C17.7374 15.7361 18.3738 17.3924 18.9192 20.5333C18.9876 20.927 19.0544 21.3066 19.1188 21.6724L19.119 21.6735L19.1191 21.6743ZM24.1744 26.9672C23.4204 27.575 23.1571 27.7873 22.091 27.9159C21.1718 26.3909 20.9394 23.6237 21.7475 22.0684C23.4647 22.5834 24.5657 25.1689 24.4142 26.7747C24.3286 26.8429 24.2491 26.907 24.1744 26.9672ZM9.7879 21.8462C10.649 23.0343 10.5998 26.1529 10.5666 28.2608V28.2609V28.2609C10.5609 28.6256 10.5556 28.96 10.5556 29.249C8.7604 29.0899 8.79235 27.9786 8.83492 26.498C8.84097 26.2874 8.84724 26.0694 8.8485 25.8455C8.85067 25.3187 8.83328 24.8519 8.81793 24.4397C8.76179 22.932 8.73287 22.1555 9.7879 21.8462Z" fill="#EF4635"/>
</svg>
