<svg width="124" height="22" viewBox="0 0 124 22" fill="none" xmlns="http://www.w3.org/2000/svg">
<path d="M28.1745 6.23083V10.1877C28.1745 10.3937 28.3451 10.5612 28.5548 10.5612H31.0259C31.9155 10.5612 32.6085 10.3424 33.1061 9.90603C33.6036 9.46962 33.8512 8.90751 33.8512 8.22321C33.8512 7.53775 33.6285 6.97215 33.1842 6.52759C32.74 6.08187 32.0636 5.85959 31.1574 5.85959H28.5548C28.3451 5.85959 28.1745 6.02717 28.1745 6.23316V6.23083ZM27.7943 19.8132H24.4999C24.2902 19.8132 24.1196 19.6457 24.1196 19.4397V2.58123C24.1196 2.37524 24.2902 2.20766 24.4999 2.20766H31.7592C32.7187 2.20766 33.5775 2.35313 34.3357 2.64408C35.0938 2.93502 35.7394 3.33769 36.2713 3.85207C36.8032 4.36646 37.2131 4.98326 37.501 5.70248C37.7888 6.42169 37.9322 7.21073 37.9322 8.06727C37.9322 8.75273 37.8184 9.40328 37.5922 10.0201C37.3647 10.6369 37.0425 11.1932 36.6244 11.6901C36.2062 12.187 35.6909 12.6072 35.0808 12.9493C34.6389 13.1972 34.1592 13.3974 33.6439 13.5463C33.5148 13.5836 33.4212 13.6767 33.3856 13.8047C33.3489 13.9327 33.3797 14.0595 33.4709 14.1561L38.1608 19.186C38.265 19.2977 38.2911 19.4501 38.2283 19.5886C38.1667 19.7271 38.0352 19.8121 37.8812 19.8121H33.6332C33.5195 19.8121 33.4212 19.7679 33.3465 19.6829L28.8427 14.5797C28.7372 14.4599 28.5738 14.4191 28.4233 14.475C28.2717 14.5309 28.1757 14.6659 28.1757 14.8241V19.4385C28.1757 19.6445 28.0051 19.8121 27.7955 19.8121L27.7943 19.8132ZM40.588 2.20882H47.5334C48.9111 2.20882 50.162 2.43576 51.2874 2.88963C52.4128 3.34351 53.3711 3.96031 54.1648 4.74003C54.9585 5.51976 55.5733 6.44031 56.0093 7.50284C56.4452 8.56536 56.6632 9.7047 56.6632 10.9208C56.6632 12.1544 56.4369 13.3147 55.9832 14.4029C55.5295 15.491 54.8934 16.4325 54.0736 17.2297C53.2539 18.0269 52.273 18.6565 51.1311 19.1185C49.9891 19.5817 48.7204 19.8121 47.3249 19.8121H40.5892C40.3796 19.8121 40.209 19.6445 40.209 19.4385V2.58007C40.209 2.37408 40.3796 2.2065 40.5892 2.2065L40.588 2.20882ZM44.2627 6.23199V15.7912C44.2627 15.9972 44.4333 16.1648 44.643 16.1648H47.454C48.1861 16.1648 48.8625 16.0368 49.4809 15.7796C50.1004 15.5224 50.6406 15.1628 51.1026 14.7008C51.5646 14.2376 51.9271 13.6895 52.1877 13.0564C52.4495 12.4221 52.5798 11.7285 52.5798 10.9744C52.5798 10.2377 52.4495 9.5569 52.1877 8.93079C51.9259 8.30584 51.5599 7.76585 51.0884 7.31198C50.6169 6.8581 50.059 6.50199 49.4146 6.2448C48.7689 5.9876 48.0712 5.85959 47.3214 5.85959H44.6406C44.4309 5.85959 44.2603 6.02717 44.2603 6.23316L44.2627 6.23199ZM64.3856 7.43999L62.5838 12.7701C62.5436 12.8876 62.5625 13.0052 62.636 13.1064C62.7094 13.2065 62.8184 13.2612 62.944 13.2612H66.5475C66.6731 13.2612 66.7821 13.2065 66.8555 13.1064C66.929 13.0063 66.9479 12.8876 66.9077 12.7701L65.1059 7.43999C65.0537 7.28521 64.9116 7.18396 64.7458 7.18396C64.5787 7.18396 64.4378 7.28405 64.3856 7.43999ZM68.0034 16.7816H61.5153C61.3483 16.7816 61.2073 16.8817 61.154 17.0376L60.3058 19.5584C60.2537 19.7143 60.1116 19.8144 59.9445 19.8144H56.5968C56.4689 19.8144 56.3599 19.7585 56.2865 19.6561C56.213 19.5537 56.1964 19.4339 56.2391 19.3163L62.3019 2.45787C62.3564 2.30542 62.4962 2.20882 62.6597 2.20882H67.0925C67.2571 2.20882 67.3969 2.30658 67.4502 2.45787L73.4882 19.3163C73.5308 19.4339 73.513 19.5537 73.4396 19.6561C73.3661 19.7585 73.2572 19.8132 73.1292 19.8132H69.5718C69.4048 19.8132 69.2639 19.712 69.2105 19.5572L68.3624 17.0365C68.3102 16.8805 68.1681 16.7804 68.0011 16.7804L68.0034 16.7816Z" fill="white"/>
<path fill-rule="evenodd" clip-rule="evenodd" d="M105.57 9.12166H97.9584C97.7487 9.12166 97.5781 8.95408 97.5781 8.74809V6.17964C97.5781 5.97365 97.7487 5.80606 97.9584 5.80606H106.251C106.46 5.80606 106.631 5.63848 106.631 5.43249V2.58124C106.631 2.37526 106.46 2.20767 106.251 2.20767H93.9047C93.695 2.20767 93.5244 2.37526 93.5244 2.58124V19.4397C93.5244 19.6457 93.695 19.8133 93.9047 19.8133H106.277C106.486 19.8133 106.657 19.6457 106.657 19.4397V16.5884C106.657 16.3824 106.486 16.2149 106.277 16.2149H97.9584C97.7487 16.2149 97.5781 16.0473 97.5781 15.8413V12.99C97.5781 12.7841 97.7487 12.6165 97.9584 12.6165H105.57C105.779 12.6165 105.95 12.4489 105.95 12.2429V9.49407C105.95 9.28808 105.779 9.12049 105.57 9.12049V9.12166Z" fill="white"/>
<path fill-rule="evenodd" clip-rule="evenodd" d="M91.1293 14.6344C91.5735 13.5126 91.7962 12.2918 91.7962 10.972V10.3168C91.7962 10.1109 91.6257 9.94327 91.416 9.94327H82.8892C82.6795 9.94327 82.5089 10.1109 82.5089 10.3168V13.0401C82.5089 13.2461 82.6795 13.4136 82.8892 13.4136H86.6965C86.8315 13.4136 86.9476 13.4765 87.0187 13.5894C87.0898 13.7023 87.0969 13.8326 87.0365 13.9513C86.6894 14.6438 86.2037 15.2094 85.583 15.6493C84.8071 16.1974 83.8167 16.472 82.6132 16.472C81.829 16.472 81.104 16.3347 80.4418 16.0612C79.7796 15.7866 79.2074 15.4142 78.7288 14.9428C78.2491 14.4715 77.8747 13.9059 77.6035 13.2461C77.3334 12.5862 77.1983 11.8716 77.1983 11.1001C77.1983 10.2773 77.3381 9.5278 77.6165 8.85165C77.8961 8.17433 78.2834 7.59245 78.781 7.10366C79.2785 6.61487 79.8625 6.23781 80.5342 5.97247C81.2059 5.70713 81.9332 5.57446 82.7186 5.57446C83.6604 5.57446 84.5062 5.78394 85.256 6.20406C85.9087 6.56949 86.5093 7.06176 87.0566 7.68089C87.1929 7.83451 87.431 7.85313 87.5897 7.72046L90.011 5.69666C90.165 5.56748 90.1899 5.34403 90.0667 5.18576C89.2825 4.17444 88.3111 3.37958 87.1538 2.79886C85.8898 2.1646 84.4114 1.84805 82.7198 1.84805C81.2722 1.84805 79.9561 2.08779 78.7691 2.56727C77.5833 3.04674 76.5669 3.70195 75.7211 4.53288C74.8753 5.36382 74.2214 6.33557 73.7594 7.4493C73.2974 8.56303 73.0664 9.74543 73.0664 10.9965C73.0664 12.265 73.3021 13.4555 73.7724 14.5693C74.2439 15.683 74.9061 16.6559 75.7602 17.4869C76.6143 18.3178 77.6354 18.973 78.8212 19.4525C80.007 19.932 81.3065 20.1717 82.7186 20.1717C84.0619 20.1717 85.2916 19.9401 86.4075 19.4781C87.5234 19.0149 88.4782 18.3725 89.2718 17.5509C90.0655 16.7281 90.6851 15.7563 91.1293 14.6333V14.6344Z" fill="white"/>
<path fill-rule="evenodd" clip-rule="evenodd" d="M113.059 9.74079L119.466 19.6399C119.538 19.7504 119.653 19.8133 119.787 19.8133H123.619C123.829 19.8133 124 19.6457 124 19.4397V2.58124C124 2.37526 123.829 2.20767 123.619 2.20767H120.481C120.272 2.20767 120.101 2.37526 120.101 2.58124V12.1021C120.101 12.2708 119.992 12.414 119.827 12.4605C119.663 12.5071 119.492 12.4442 119.401 12.3023L112.993 2.38107C112.921 2.26935 112.806 2.20767 112.672 2.20767H108.84C108.631 2.20767 108.46 2.37526 108.46 2.58124V19.4397C108.46 19.6457 108.631 19.8133 108.84 19.8133H111.978C112.188 19.8133 112.359 19.6457 112.359 19.4397V9.94212C112.359 9.77337 112.467 9.63023 112.632 9.58368C112.797 9.53713 112.967 9.59997 113.059 9.74195V9.74079Z" fill="white"/>
<path fill-rule="evenodd" clip-rule="evenodd" d="M62.3032 2.45672L56.2404 19.3152C56.1978 19.4327 56.2144 19.5526 56.2878 19.655C56.3613 19.7574 56.4702 19.8133 56.5982 19.8133H59.9459C60.1129 19.8133 60.2539 19.712 60.3072 19.5572L61.1554 17.0365C61.2075 16.8805 61.3496 16.7805 61.5167 16.7805H68.0048C68.1718 16.7805 68.3128 16.8805 68.3661 17.0365L69.2143 19.5572C69.2664 19.7132 69.4085 19.8133 69.5756 19.8133H73.1329C73.2597 19.8133 73.3698 19.7574 73.4433 19.6561C73.5167 19.5537 73.5333 19.4339 73.4919 19.3163L67.4539 2.45788C67.3994 2.30543 67.2596 2.20883 67.0962 2.20883H62.6634C62.4999 2.20883 62.3601 2.30543 62.3056 2.45788L62.3032 2.45672ZM62.5852 12.7678L64.387 7.43767C64.4391 7.28289 64.5812 7.18164 64.7471 7.18164C64.9141 7.18164 65.0551 7.28173 65.1072 7.43767L66.909 12.7678C66.9493 12.8853 66.9303 13.0028 66.8569 13.1041C66.7834 13.2042 66.6745 13.2589 66.5489 13.2589H62.9453C62.8197 13.2589 62.7108 13.2042 62.6373 13.1041C62.5639 13.004 62.5449 12.8853 62.5852 12.7678Z" fill="white"/>
<path fill-rule="evenodd" clip-rule="evenodd" d="M47.3237 5.85726C48.0735 5.85726 48.7713 5.98644 49.4169 6.24247C50.0625 6.49967 50.6204 6.85462 51.0907 7.30965C51.561 7.76353 51.9282 8.30352 52.19 8.92846C52.4518 9.55341 52.5821 10.2354 52.5821 10.9721C52.5821 11.7262 52.4518 12.4198 52.19 13.054C51.9282 13.6883 51.5669 14.2364 51.1049 14.6985C50.6429 15.1605 50.1016 15.5212 49.4832 15.7773C48.8637 16.0345 48.1884 16.1625 47.4563 16.1625H44.6453C44.4356 16.1625 44.265 15.9949 44.265 15.7889V6.22967C44.265 6.02368 44.4356 5.8561 44.6453 5.8561H47.326L47.3237 5.85726ZM40.2077 2.58124V19.4397C40.2077 19.6457 40.3783 19.8133 40.588 19.8133H47.3237C48.7191 19.8133 49.9878 19.5817 51.1298 19.1196C52.2718 18.6565 53.2538 18.0269 54.0724 17.2308C54.8921 16.4336 55.5283 15.4922 55.982 14.404C56.4357 13.3159 56.6619 12.1556 56.6619 10.922C56.6619 9.70587 56.444 8.56653 56.008 7.504C55.5721 6.44148 54.9573 5.52093 54.1636 4.7412C53.3699 3.96147 52.4104 3.34467 51.2862 2.8908C50.1608 2.43693 48.9099 2.20999 47.5322 2.20999H40.5868C40.3771 2.20999 40.2065 2.37758 40.2065 2.58356L40.2077 2.58124Z" fill="white"/>
<path fill-rule="evenodd" clip-rule="evenodd" d="M12.1363 13.4044C11.3556 14.5763 11.1069 15.9903 11.3888 17.3158C11.435 17.5346 11.6388 17.6812 11.865 17.6603C13.1136 17.5404 14.2698 17.0877 15.2352 16.3883C15.4177 16.2556 15.4698 16.0124 15.3549 15.8192C14.6619 14.6484 13.514 13.7616 12.1351 13.4044H12.1363ZM22.3938 11C22.3938 4.9251 17.3806 0 11.1969 0C5.01326 0 0 4.9251 0 11C0 17.0749 5.01326 22 11.1969 22C17.3806 22 22.3938 17.0749 22.3938 11ZM14.6204 0.811151C14.6086 0.80766 14.5956 0.803005 14.5837 0.799513C14.5956 0.803005 14.6086 0.80766 14.6204 0.811151ZM9.79197 16.9422C9.70668 16.1392 9.76946 15.3234 9.98032 14.5367C10.0561 14.2551 10.1497 13.9769 10.2634 13.7046C10.3156 13.5778 10.3085 13.4486 10.2409 13.3287C10.1734 13.2088 10.0656 13.1332 9.9282 13.1111C9.72326 13.0762 9.52188 13.0354 9.32286 12.9889C9.10608 12.9388 8.8893 13.0506 8.80756 13.2531C8.78505 13.3101 8.76254 13.3671 8.74122 13.4241C8.5351 13.9769 8.39176 14.546 8.31121 15.1233C8.23421 15.6726 8.21407 16.2277 8.25079 16.7793C8.26146 16.9469 8.36096 17.0854 8.51852 17.1517C8.74714 17.2471 8.9817 17.3321 9.22217 17.4031C9.36788 17.4461 9.51477 17.4171 9.63323 17.3216C9.75169 17.2262 9.80737 17.09 9.79197 16.9411V16.9422ZM7.01406 13.8571C7.11002 13.4847 7.22966 13.1169 7.37063 12.755C7.45237 12.5455 7.36115 12.3116 7.1574 12.2103C6.80557 12.0358 6.46677 11.8402 6.14219 11.6261C5.78562 11.3922 5.44564 11.135 5.12461 10.8592C4.98957 10.7428 4.80714 10.7172 4.64366 10.7928C4.48019 10.8685 4.38423 11.0221 4.39016 11.199C4.43636 12.7608 5.03221 14.2004 6.00241 15.3246C6.1185 15.4596 6.29501 15.5108 6.46796 15.4596C6.64091 15.4084 6.75937 15.2699 6.7807 15.0942C6.83045 14.6775 6.90863 14.2644 7.01406 13.8559V13.8571ZM6.24288 9.83157C6.6954 10.2075 7.19057 10.5357 7.7189 10.8115C7.7734 10.8406 7.82907 10.8685 7.88475 10.8953C8.08376 10.993 8.32187 10.9337 8.44744 10.7533C8.56353 10.588 8.68673 10.4239 8.81467 10.2645C8.90114 10.1574 8.92957 10.0306 8.89877 9.89674C8.86679 9.76407 8.78505 9.66166 8.65948 9.60231C8.38939 9.47429 8.12996 9.32998 7.88238 9.17055C7.19057 8.72482 6.58879 8.15923 6.10428 7.50635C6.01425 7.38532 5.88039 7.32131 5.72758 7.32713C5.57476 7.33411 5.44683 7.40859 5.36746 7.53661C5.23834 7.74609 5.12106 7.96255 5.01563 8.18599C4.94337 8.33845 4.96351 8.50603 5.07012 8.6387C5.4184 9.07279 5.81169 9.47196 6.24288 9.83041V9.83157ZM10.6579 10.4716C10.4956 10.6322 10.3404 10.7987 10.1936 10.9686C10.0869 11.0931 10.0585 11.2537 10.1177 11.405C10.177 11.5574 10.3073 11.6587 10.4719 11.6808C10.697 11.7111 10.9245 11.7332 11.1555 11.7448C11.2005 11.7471 11.2455 11.7506 11.2893 11.753C11.4255 11.7634 11.5476 11.7169 11.6423 11.6203C11.6731 11.5889 11.7051 11.5574 11.7359 11.526C11.8994 11.3654 12.0534 11.199 12.2003 11.0291C12.3069 10.9046 12.3353 10.744 12.2749 10.5915C12.2157 10.4391 12.0854 10.339 11.9207 10.3157C11.6956 10.2854 11.4682 10.2645 11.2372 10.2517C11.1922 10.2494 11.1472 10.2459 11.1021 10.2435C10.9659 10.2331 10.8439 10.2796 10.7491 10.3762C10.7183 10.4076 10.6863 10.4391 10.6555 10.4705L10.6579 10.4716ZM13.9464 11.2444C13.8303 11.4096 13.7071 11.5737 13.5792 11.7332C13.4927 11.8402 13.4643 11.9671 13.4951 12.1009C13.527 12.2336 13.6088 12.336 13.7343 12.3954C14.0044 12.5234 14.2639 12.6677 14.5114 12.8271C15.2033 13.2729 15.805 13.8384 16.2895 14.4913C16.3796 14.6124 16.5134 14.6764 16.6662 14.6705C16.8191 14.6647 16.947 14.5891 17.0264 14.4611C17.1555 14.2516 17.2728 14.0351 17.3782 13.8117C17.4505 13.6592 17.4303 13.4916 17.3237 13.359C16.9754 12.9249 16.5821 12.5245 16.1509 12.1673C15.6984 11.7914 15.2033 11.4632 14.6749 11.1874C14.6204 11.1594 14.5648 11.1315 14.5091 11.1036C14.3101 11.0058 14.072 11.0663 13.9464 11.2456V11.2444ZM15.2364 9.78735C15.5883 9.96191 15.9271 10.1574 16.2516 10.3716C16.6082 10.6055 16.9482 10.8627 17.2692 11.1385C17.4054 11.2549 17.5867 11.2805 17.7502 11.2048C17.9125 11.1292 18.0096 10.9756 18.0037 10.7987C17.9575 9.23688 17.3616 7.79729 16.3914 6.67309C16.2753 6.53809 16.0976 6.48688 15.9259 6.53809C15.7529 6.58929 15.6345 6.72778 15.6131 6.90351C15.5622 7.32014 15.4852 7.73445 15.3798 8.14177C15.2838 8.51418 15.1642 8.88193 15.0232 9.2427C14.9415 9.45218 15.0327 9.6861 15.2364 9.78735ZM13.6538 8.57237C13.8599 8.01957 14.0032 7.45049 14.0838 6.87325C14.1608 6.32395 14.1809 5.76883 14.1442 5.2172C14.1336 5.04962 14.034 4.91113 13.8765 4.84479C13.6479 4.74936 13.4133 4.66441 13.1717 4.59342C13.0259 4.55036 12.8791 4.57945 12.7606 4.67488C12.6433 4.77031 12.5865 4.90647 12.6019 5.05544C12.6871 5.85844 12.6244 6.67425 12.4147 7.46096C12.3389 7.74259 12.2453 8.02074 12.1316 8.29306C12.0794 8.41991 12.0866 8.54909 12.1541 8.66896C12.2216 8.78883 12.3294 8.86447 12.4668 8.88775C12.6706 8.92266 12.8731 8.9634 13.0721 9.00995C13.2889 9.05999 13.5057 8.94827 13.5875 8.74577C13.61 8.68874 13.6325 8.63172 13.6538 8.57469V8.57237ZM10.4435 8.29422C11.0773 7.18515 11.2644 5.89801 11.005 4.68303C10.9588 4.46424 10.7539 4.3176 10.5288 4.33855C9.28022 4.45842 8.12404 4.91113 7.15859 5.61056C6.97616 5.74323 6.92403 5.98646 7.03894 6.17964C7.67389 7.25148 8.69028 8.08591 9.91517 8.49323C10.1189 8.56073 10.3381 8.4781 10.4435 8.29422ZM11.6518 2.885C16.2125 3.13172 19.7071 6.96403 19.456 11.4446C19.2049 15.9251 15.3039 19.3582 10.7432 19.1115C6.18247 18.8648 2.68788 15.0325 2.93901 10.5519C3.19015 6.07141 7.09106 2.63828 11.6518 2.885Z" fill="white"/>
</svg>
