<svg width="38" height="41" viewBox="0 0 38 41" fill="none" xmlns="http://www.w3.org/2000/svg">
<path d="M28.9998 8.6342C30.8498 8.3002 32.7878 8.1062 34.9118 8.0342C36.0478 7.9962 36.9998 8.8962 36.9998 10.0322V33.706C36.9998 34.79 36.1338 35.686 35.0518 35.702C28.8678 35.796 24.2119 36.936 18.9999 40M18.9999 40C13.7879 36.936 9.13195 35.796 2.94799 35.704C1.86599 35.688 1 34.79 1 33.706V10.0322C1 8.9142 1.91799 7.9962 3.03399 8.0322C9.17595 8.2302 13.8119 9.3862 18.9999 12.2922M18.9999 40V11.2242C19.6939 7.54021 22.6539 3.96223 26.1658 2.20224C27.4678 1.54825 28.9998 2.56624 28.9998 4.02423V28.4761C28.9998 29.3241 28.4658 30.0821 27.6618 30.3521C23.5219 31.7421 19.7919 35.802 18.9999 40Z" stroke="white" stroke-width="2" stroke-linecap="round" stroke-linejoin="round"/>
</svg>
