<svg width="42" height="34" viewBox="0 0 42 34" fill="none" xmlns="http://www.w3.org/2000/svg">
<path d="M40.166 5.99633C39.708 4.033 38.352 2.48423 36.628 1.95233C33.51 1 21 1 21 1C21 1 8.496 1 5.372 1.95233C3.654 2.47641 2.298 4.02518 1.834 5.99633C1 9.55928 1 17 1 17C1 17 1 24.4407 1.834 28.0037C2.292 29.967 3.648 31.5158 5.372 32.0477C8.496 33 21 33 21 33C21 33 33.51 33 36.628 32.0477C38.346 31.5236 39.702 29.9748 40.166 28.0037C41 24.4407 41 17 41 17C41 17 41 9.55928 40.166 5.99633Z" stroke="white" stroke-width="2" stroke-linecap="round" stroke-linejoin="round"/>
<path d="M17.004 22.8665L27.396 17L17.004 11.1335V22.8665Z" stroke="white" stroke-width="2" stroke-linecap="round" stroke-linejoin="round"/>
</svg>
