<svg width="30" height="38" viewBox="0 0 30 38" fill="none" xmlns="http://www.w3.org/2000/svg">
<path d="M9.88 24.5V29.5M12.38 27H7.38M27 1H3C1.896 1 1 1.896 1 3V35.226C1 36.206 1.794 37 2.774 37H21C25.418 37 29 33.418 29 29V3C29 1.896 28.104 1 27 1ZM19 19H8.656C7.742 19 7 18.258 7 17.344V8.656C7 7.742 7.742 7 8.656 7H21.344C22.258 7 23 7.742 23 8.656V15C23 17.21 21.21 19 19 19ZM17.874 28.5C17.598 28.5 17.374 28.724 17.376 29C17.376 29.276 17.6 29.5 17.876 29.5C18.152 29.5 18.376 29.276 18.376 29C18.376 28.724 18.152 28.5 17.874 28.5ZM21.874 24.5C21.598 24.5 21.374 24.724 21.376 25C21.376 25.276 21.6 25.5 21.876 25.5C22.152 25.5 22.376 25.276 22.376 25C22.376 24.724 22.152 24.5 21.874 24.5Z" stroke="#E18500" stroke-width="2" stroke-linecap="round" stroke-linejoin="round"/>
</svg>
