<svg width="20" height="20" viewBox="0 0 20 20" fill="none" xmlns="http://www.w3.org/2000/svg">
<path fill-rule="evenodd" clip-rule="evenodd" d="M10.839 12.1858C10.1418 13.2512 9.91959 14.5366 10.1714 15.7416C10.2127 15.9405 10.3946 16.0738 10.5967 16.0548C11.7118 15.9458 12.7444 15.5343 13.6066 14.8984C13.7696 14.7778 13.8161 14.5567 13.7135 14.3811C13.0946 13.3168 12.0694 12.5106 10.8379 12.1858H10.839ZM20 10C20 4.47736 15.5226 0 10 0C4.47736 0 0 4.47736 0 10C0 15.5226 4.47736 20 10 20C15.5226 20 20 15.5226 20 10ZM13.0576 0.73741C13.047 0.734236 13.0353 0.730004 13.0248 0.72683C13.0353 0.730004 13.047 0.734236 13.0576 0.73741ZM8.74524 15.402C8.66907 14.672 8.72514 13.9304 8.91346 13.2152C8.98117 12.9592 9.06475 12.7063 9.16631 12.4587C9.21286 12.3434 9.20652 12.226 9.14621 12.117C9.08591 12.008 8.98963 11.9393 8.86691 11.9192C8.68388 11.8874 8.50402 11.8504 8.32628 11.8081C8.13267 11.7626 7.93906 11.8642 7.86606 12.0482C7.84596 12.1001 7.82586 12.1519 7.80681 12.2038C7.62273 12.7063 7.49471 13.2237 7.42277 13.7484C7.354 14.2478 7.33601 14.7524 7.36881 15.2539C7.37833 15.4063 7.4672 15.5322 7.60791 15.5925C7.8121 15.6792 8.02158 15.7565 8.23635 15.821C8.36648 15.8601 8.49767 15.8337 8.60347 15.7469C8.70927 15.6602 8.75899 15.5364 8.74524 15.401V15.402ZM6.26428 12.5973C6.34998 12.2588 6.45683 11.9245 6.58273 11.5954C6.65573 11.405 6.57427 11.1923 6.3923 11.1003C6.07808 10.9416 5.7755 10.7639 5.48561 10.5692C5.16716 10.3565 4.86352 10.1227 4.57681 9.87199C4.4562 9.76619 4.29327 9.74291 4.14727 9.81168C4.00127 9.88045 3.91557 10.0201 3.92086 10.1809C3.96212 11.6007 4.49429 12.9094 5.36077 13.9314C5.46445 14.0542 5.62209 14.1007 5.77656 14.0542C5.93102 14.0076 6.03682 13.8817 6.05586 13.722C6.1003 13.3432 6.17012 12.9676 6.26428 12.5963V12.5973ZM5.57554 8.93779C5.97969 9.27952 6.42192 9.57787 6.89378 9.82861C6.94245 9.85506 6.99217 9.88045 7.0419 9.90478C7.21964 9.99365 7.43229 9.9397 7.54444 9.77571C7.64812 9.62548 7.75815 9.4763 7.87241 9.33136C7.94964 9.23403 7.97503 9.1187 7.94752 8.99704C7.91896 8.87643 7.84596 8.78333 7.73381 8.72937C7.49259 8.61299 7.2609 8.4818 7.03978 8.33686C6.42192 7.93165 5.88447 7.41748 5.45176 6.82395C5.37135 6.71392 5.2518 6.65573 5.11532 6.66102C4.97884 6.66737 4.86458 6.73508 4.79369 6.85146C4.67838 7.0419 4.57364 7.23868 4.47948 7.44181C4.41494 7.58041 4.43292 7.73276 4.52814 7.85336C4.83919 8.24799 5.19044 8.61088 5.57554 8.93673V8.93779ZM9.51862 9.51968C9.37368 9.66568 9.23508 9.81697 9.10389 9.97143C9.00868 10.0846 8.98328 10.2306 9.03618 10.3682C9.08908 10.5068 9.20546 10.5988 9.35252 10.6189C9.55353 10.6464 9.75667 10.6665 9.96297 10.6771C10.0032 10.6792 10.0434 10.6824 10.0825 10.6845C10.2042 10.694 10.3132 10.6517 10.3978 10.5639C10.4253 10.5353 10.4539 10.5068 10.4814 10.4782C10.6274 10.3322 10.7649 10.1809 10.8961 10.0265C10.9913 9.91325 11.0167 9.76725 10.9628 9.62865C10.9099 9.49006 10.7935 9.39907 10.6464 9.37791C10.4454 9.3504 10.2423 9.33136 10.036 9.31972C9.99577 9.31761 9.95557 9.31443 9.91536 9.31231C9.79369 9.30279 9.68472 9.34511 9.60008 9.43292C9.57258 9.46149 9.54401 9.49006 9.5165 9.51862L9.51862 9.51968ZM12.4556 10.2222C12.3519 10.3724 12.2419 10.5216 12.1276 10.6665C12.0504 10.7639 12.025 10.8792 12.0525 11.0008C12.081 11.1215 12.154 11.2146 12.2662 11.2685C12.5074 11.3849 12.7391 11.5161 12.9602 11.661C13.5781 12.0662 14.1155 12.5804 14.5482 13.1739C14.6286 13.284 14.7482 13.3422 14.8847 13.3369C15.0212 13.3316 15.1354 13.2628 15.2063 13.1464C15.3216 12.956 15.4264 12.7592 15.5205 12.5561C15.5851 12.4175 15.5671 12.2651 15.4719 12.1445C15.1608 11.7499 14.8096 11.386 14.4245 11.0612C14.0203 10.7194 13.5781 10.4211 13.1062 10.1703C13.0576 10.1449 13.0078 10.1196 12.9581 10.0942C12.7804 10.0053 12.5677 10.0603 12.4556 10.2232V10.2222ZM13.6077 8.89759C13.9219 9.05628 14.2245 9.23403 14.5144 9.42869C14.8328 9.64135 15.1365 9.87516 15.4232 10.1259C15.5449 10.2317 15.7067 10.255 15.8527 10.1862C15.9977 10.1174 16.0844 9.97778 16.0791 9.81697C16.0379 8.39716 15.5057 7.08845 14.6392 6.06644C14.5355 5.94372 14.3769 5.89716 14.2234 5.94372C14.069 5.99027 13.9632 6.11617 13.9441 6.27592C13.8986 6.65468 13.8299 7.03132 13.7357 7.40161C13.65 7.74016 13.5432 8.07448 13.4173 8.40246C13.3443 8.59289 13.4257 8.80554 13.6077 8.89759ZM12.1942 7.79306C12.3783 7.29052 12.5063 6.77317 12.5783 6.24841C12.6471 5.74905 12.665 5.24439 12.6322 4.74291C12.6227 4.59056 12.5339 4.46466 12.3931 4.40436C12.189 4.3176 11.9795 4.24037 11.7636 4.17584C11.6335 4.13669 11.5023 4.16314 11.3965 4.24989C11.2918 4.33665 11.241 4.46043 11.2548 4.59585C11.3309 5.32586 11.2749 6.0675 11.0876 6.78269C11.0199 7.03872 10.9363 7.29158 10.8347 7.53915C10.7882 7.65446 10.7945 7.7719 10.8548 7.88087C10.9151 7.98984 11.0114 8.05861 11.1342 8.07977C11.3161 8.11151 11.497 8.14854 11.6748 8.19086C11.8684 8.23635 12.062 8.13479 12.135 7.9507C12.1551 7.89886 12.1752 7.84702 12.1942 7.79518V7.79306ZM9.32713 7.5402C9.89314 6.53195 10.0603 5.36183 9.82861 4.2573C9.78735 4.0584 9.60432 3.9251 9.4033 3.94414C8.28819 4.05311 7.25561 4.46466 6.39336 5.10051C6.23043 5.22112 6.18388 5.44223 6.2865 5.61786C6.85358 6.59226 7.76132 7.35083 8.85527 7.72112C9.03724 7.78248 9.23297 7.70736 9.32713 7.5402ZM10.4063 2.62273C14.4795 2.84702 17.6005 6.33094 17.3762 10.4041C17.1519 14.4774 13.668 17.5984 9.5948 17.3741C5.52158 17.1498 2.40055 13.6659 2.62484 9.59268C2.84913 5.51947 6.33305 2.39843 10.4063 2.62273Z" fill="#9E5E00"/>
</svg>
