<svg width="30" height="30" viewBox="0 0 30 30" fill="none" xmlns="http://www.w3.org/2000/svg">
<path d="M7.51362 8.03053L6.61085 4H4" stroke="#819299" stroke-linecap="round" stroke-linejoin="round"/>
<path d="M9.89849 19.0607L7.51367 8.03052H24.6459C25.5081 8.03052 26.1496 8.81916 25.9696 9.65617L23.9367 19.0607C23.8027 19.6801 23.2519 20.1221 22.613 20.1221H11.2208C10.5833 20.1221 10.0325 19.6801 9.89849 19.0607Z" stroke="#819299" stroke-linecap="round" stroke-linejoin="round"/>
<path d="M23.0732 24.9924C22.7931 24.9924 22.5657 25.2181 22.5684 25.4962C22.5684 25.7743 22.7958 26 23.0759 26C23.3561 26 23.5835 25.7743 23.5835 25.4962C23.5821 25.2181 23.3548 24.9924 23.0732 24.9924Z" stroke="#819299" stroke-linecap="round" stroke-linejoin="round"/>
<path d="M11.4209 24.9924C11.1407 24.9924 10.9133 25.2181 10.916 25.4962C10.9147 25.7743 11.1421 26 11.4222 26C11.7024 26 11.9298 25.7743 11.9298 25.4962C11.9298 25.2181 11.7024 24.9924 11.4209 24.9924" stroke="#819299" stroke-linecap="round" stroke-linejoin="round"/>
</svg>
