<svg width="38" height="38" viewBox="0 0 38 38" fill="none" xmlns="http://www.w3.org/2000/svg">
<path d="M26.0879 23.09L18.1339 37M3.85988 9.28L11.9199 23.1M18.9999 10.82H35.0399M31.7279 6.27208C38.7573 13.3015 38.7573 24.6985 31.7279 31.7279C24.6984 38.7573 13.3015 38.7573 6.27208 31.7279C-0.75736 24.6984 -0.75736 13.3015 6.27208 6.27208C13.3015 -0.75736 24.6985 -0.75736 31.7279 6.27208ZM24.7855 13.2145C27.9807 16.4097 27.9807 21.5903 24.7855 24.7856C21.5902 27.9808 16.4097 27.9808 13.2144 24.7856C10.0191 21.5903 10.0191 16.4097 13.2144 13.2145C16.4096 10.0192 21.5902 10.0192 24.7855 13.2145Z" stroke="white" stroke-width="2" stroke-linecap="round" stroke-linejoin="round"/>
</svg>
