<svg width="40" height="40" viewBox="0 0 40 40" fill="none" xmlns="http://www.w3.org/2000/svg">
<path d="M20.0023 5.33331C23.5764 5.33386 27.0273 6.63948 29.7067 9.00487C32.3861 11.3703 34.1095 14.6326 34.5532 18.1791C34.997 21.7255 34.1304 25.312 32.1164 28.2646C30.1024 31.2172 27.0796 33.3328 23.6158 34.214C20.152 35.0951 16.4857 34.681 13.3056 33.0497C10.1255 31.4183 7.6506 28.6819 6.34576 25.3545C5.04092 22.0271 4.99599 18.3377 6.21941 14.9795C7.44284 11.6214 9.8504 8.82547 12.9898 7.11715M12.9898 12.7546V6.27198H6.50714" stroke="#888888" stroke-linecap="round" stroke-linejoin="round"/>
<path d="M16.2344 25.1641C18.21 25.1641 19.6592 23.9473 19.6592 22.2998V22.2861C19.6592 20.8848 18.6816 19.9893 17.2461 19.8662V19.8389C18.4766 19.5791 19.3379 18.7451 19.3379 17.5283V17.5146C19.3379 16.0176 18.1006 14.9717 16.2207 14.9717C14.375 14.9717 13.1035 16.0449 12.9463 17.6514L12.9395 17.7197H14.1221L14.1289 17.6514C14.2314 16.6533 15.0586 16.0381 16.2207 16.0381C17.4238 16.0381 18.1006 16.6328 18.1006 17.665V17.6787C18.1006 18.6631 17.2803 19.3877 16.1045 19.3877H14.9219V20.4268H16.1592C17.54 20.4268 18.4082 21.1035 18.4082 22.3135V22.3271C18.4082 23.373 17.5264 24.0977 16.2344 24.0977C14.9219 24.0977 14.0332 23.4277 13.9307 22.457L13.9238 22.3887H12.7412L12.748 22.4707C12.8779 24.0293 14.1973 25.1641 16.2344 25.1641ZM24.6357 25.1641C26.9053 25.1641 28.2656 23.2021 28.2656 20.0713V20.0576C28.2656 16.9268 26.9053 14.9717 24.6357 14.9717C22.3662 14.9717 21.0195 16.9268 21.0195 20.0576V20.0713C21.0195 23.2021 22.3662 25.1641 24.6357 25.1641ZM24.6357 24.0908C23.1318 24.0908 22.2568 22.5459 22.2568 20.0713V20.0576C22.2568 17.583 23.1318 16.0518 24.6357 16.0518C26.1396 16.0518 27.0283 17.583 27.0283 20.0576V20.0713C27.0283 22.5459 26.1396 24.0908 24.6357 24.0908Z" fill="#888888"/>
</svg>
