<svg width="40" height="40" viewBox="0 0 40 40" fill="none" xmlns="http://www.w3.org/2000/svg">
<path d="M19.9977 5.33331C16.4236 5.33386 12.9727 6.63948 10.2933 9.00487C7.61393 11.3703 5.89048 14.6326 5.44676 18.1791C5.00303 21.7255 5.86957 25.312 7.88357 28.2646C9.89757 31.2172 12.9204 33.3328 16.3842 34.214C19.848 35.0951 23.5143 34.681 26.6944 33.0497C29.8745 31.4183 32.3494 28.6819 33.6542 25.3545C34.9591 22.0271 35.004 18.3377 33.7806 14.9795C32.5572 11.6214 30.1496 8.82547 27.0102 7.11715M27.0102 12.7546V6.27198H33.4929" stroke="#888888" stroke-linecap="round" stroke-linejoin="round"/>
<path d="M16.6172 25H17.8066V15.1357H16.6035L13.9785 17.0225V18.2598L16.5898 16.4414H16.6172V25ZM23.6992 25.1641C25.75 25.1641 27.2061 23.7832 27.2129 21.8076V21.7939C27.2129 19.9004 25.8457 18.5264 23.9521 18.5264C22.9951 18.5264 22.1748 18.8818 21.71 19.5449H21.6826L22.0176 16.2295H26.6523V15.1357H21.0059L20.5 20.7617H21.5869C21.7168 20.5361 21.874 20.3447 22.0518 20.1807C22.4893 19.7842 23.0635 19.5859 23.7334 19.5859C25.0391 19.5859 25.9756 20.5156 25.9824 21.8145V21.8281C25.9824 23.1543 25.0527 24.084 23.7129 24.084C22.5303 24.084 21.6553 23.3389 21.5322 22.3613L21.5254 22.3066H20.3154L20.3223 22.3818C20.4658 23.9883 21.8125 25.1641 23.6992 25.1641Z" fill="#888888"/>
</svg>
