<svg width="38" height="38" viewBox="0 0 38 38" fill="none" xmlns="http://www.w3.org/2000/svg">
<path d="M29 12V16M29 12L19 17L9 12L19 7L29 12ZM24.334 14.334V19.844C24.334 20.5 24.022 21.112 23.482 21.486C22.578 22.11 21.008 22.934 19.012 22.934C17.016 22.934 15.436 22.108 14.526 21.486C13.982 21.114 13.668 20.5 13.668 19.84V14.334M23 29L24 37M15 29L14 37M11.28 37H26.72M31.858 29H6.142C3.302 29 1 26.698 1 23.858V6.142C1 3.302 3.302 1 6.142 1H31.856C34.698 1 37 3.302 37 6.142V23.856C37 26.698 34.698 29 31.858 29Z" stroke="#E18500" stroke-width="2" stroke-linecap="round" stroke-linejoin="round"/>
</svg>
